{
  "asset": {
    "generator": "glTF-Transform v4.2.1",
    "version": "2.0"
  },
  "accessors": [
    {
      "type": "VEC3",
      "componentType": 5126,
      "count": 3264,
      "max": [
        0.23958544433116913,
        0.23928813636302948,
        0.0010000169277191162
      ],
      "min": [
        -0.23958544433116913,
        -0.0003582984209060669,
        -0.0009999871253967285
      ],
      "bufferView": 0,
      "byteOffset": 0
    },
    {
      "type": "VEC3",
      "componentType": 5126,
      "count": 3264,
      "bufferView": 0,
      "byteOffset": 12
    },
    {
      "type": "SCALAR",
      "componentType": 5125,
      "count": 3264,
      "bufferView": 1,
      "byteOffset": 0
    },
    {
      "type": "SCALAR",
      "componentType": 5125,
      "count": 3264,
      "bufferView": 1,
      "byteOffset": 13056
    },
    {
      "type": "SCALAR",
      "componentType": 5125,
      "count": 3264,
      "bufferView": 1,
      "byteOffset": 26112
    },
    {
      "type": "SCALAR",
      "componentType": 5125,
      "count": 3264,
      "bufferView": 1,
      "byteOffset": 39168
    },
    {
      "type": "SCALAR",
      "componentType": 5125,
      "count": 84,
      "bufferView": 1,
      "byteOffset": 52224
    },
    {
      "type": "VEC3",
      "componentType": 5126,
      "count": 3264,
      "max": [
        -0.000008180737495422363,
        0.23958544433116913,
        0.001949995756149292
      ],
      "min": [
        -0.23965461552143097,
        -0.23958544433116913,
        -0.000050008296966552734
      ],
      "bufferView": 2,
      "byteOffset": 0
    },
    {
      "type": "VEC3",
      "componentType": 5126,
      "count": 3264,
      "bufferView": 2,
      "byteOffset": 12
    },
    {
      "type": "VEC3",
      "componentType": 5126,
      "count": 3264,
      "max": [
        0.23958544433116913,
        -1.4901161193847656e-8,
        0.001949995756149292
      ],
      "min": [
        -0.23958544433116913,
        -0.23964644968509674,
        -0.000050008296966552734
      ],
      "bufferView": 3,
      "byteOffset": 0
    },
    {
      "type": "VEC3",
      "componentType": 5126,
      "count": 3264,
      "bufferView": 3,
      "byteOffset": 12
    },
    {
      "type": "VEC3",
      "componentType": 5126,
      "count": 3264,
      "max": [
        0.23914407193660736,
        0.23958544433116913,
        0.0010000169277191162
      ],
      "min": [
        -0.000502362847328186,
        -0.23958544433116913,
        -0.0009999871253967285
      ],
      "bufferView": 4,
      "byteOffset": 0
    },
    {
      "type": "VEC3",
      "componentType": 5126,
      "count": 3264,
      "bufferView": 4,
      "byteOffset": 12
    },
    {
      "type": "VEC3",
      "componentType": 5126,
      "count": 84,
      "max": [
        0.25,
        0.25,
        0.30000001192092896
      ],
      "min": [
        -0.25,
        -0.25,
        0
      ],
      "bufferView": 5,
      "byteOffset": 0
    },
    {
      "type": "VEC3",
      "componentType": 5126,
      "count": 84,
      "bufferView": 5,
      "byteOffset": 12
    },
    {
      "type": "VEC2",
      "componentType": 5126,
      "count": 84,
      "bufferView": 5,
      "byteOffset": 24
    },
    {
      "type": "SCALAR",
      "componentType": 5126,
      "count": 801,
      "max": [
        26.66666603088379
      ],
      "min": [
        0
      ],
      "bufferView": 6,
      "byteOffset": 0
    },
    {
      "type": "VEC3",
      "componentType": 5126,
      "count": 801,
      "bufferView": 6,
      "byteOffset": 3204
    },
    {
      "type": "SCALAR",
      "componentType": 5126,
      "count": 801,
      "max": [
        26.66666603088379
      ],
      "min": [
        0
      ],
      "bufferView": 6,
      "byteOffset": 12816
    },
    {
      "type": "VEC4",
      "componentType": 5126,
      "count": 801,
      "bufferView": 6,
      "byteOffset": 16020
    },
    {
      "type": "SCALAR",
      "componentType": 5126,
      "count": 801,
      "max": [
        26.66666603088379
      ],
      "min": [
        0
      ],
      "bufferView": 6,
      "byteOffset": 28836
    },
    {
      "type": "VEC3",
      "componentType": 5126,
      "count": 801,
      "bufferView": 6,
      "byteOffset": 32040
    },
    {
      "type": "SCALAR",
      "componentType": 5126,
      "count": 801,
      "max": [
        26.66666603088379
      ],
      "min": [
        0
      ],
      "bufferView": 6,
      "byteOffset": 41652
    },
    {
      "type": "VEC3",
      "componentType": 5126,
      "count": 801,
      "bufferView": 6,
      "byteOffset": 44856
    },
    {
      "type": "SCALAR",
      "componentType": 5126,
      "count": 801,
      "max": [
        26.66666603088379
      ],
      "min": [
        0
      ],
      "bufferView": 6,
      "byteOffset": 54468
    },
    {
      "type": "VEC4",
      "componentType": 5126,
      "count": 801,
      "bufferView": 6,
      "byteOffset": 57672
    },
    {
      "type": "SCALAR",
      "componentType": 5126,
      "count": 801,
      "max": [
        26.66666603088379
      ],
      "min": [
        0
      ],
      "bufferView": 6,
      "byteOffset": 70488
    },
    {
      "type": "VEC3",
      "componentType": 5126,
      "count": 801,
      "bufferView": 6,
      "byteOffset": 73692
    },
    {
      "type": "SCALAR",
      "componentType": 5126,
      "count": 801,
      "max": [
        26.66666603088379
      ],
      "min": [
        0
      ],
      "bufferView": 6,
      "byteOffset": 83304
    },
    {
      "type": "VEC3",
      "componentType": 5126,
      "count": 801,
      "bufferView": 6,
      "byteOffset": 86508
    },
    {
      "type": "SCALAR",
      "componentType": 5126,
      "count": 801,
      "max": [
        26.66666603088379
      ],
      "min": [
        0
      ],
      "bufferView": 6,
      "byteOffset": 96120
    },
    {
      "type": "VEC4",
      "componentType": 5126,
      "count": 801,
      "bufferView": 6,
      "byteOffset": 99324
    },
    {
      "type": "SCALAR",
      "componentType": 5126,
      "count": 801,
      "max": [
        26.66666603088379
      ],
      "min": [
        0
      ],
      "bufferView": 6,
      "byteOffset": 112140
    },
    {
      "type": "VEC3",
      "componentType": 5126,
      "count": 801,
      "bufferView": 6,
      "byteOffset": 115344
    },
    {
      "type": "SCALAR",
      "componentType": 5126,
      "count": 801,
      "max": [
        26.66666603088379
      ],
      "min": [
        0
      ],
      "bufferView": 6,
      "byteOffset": 124956
    },
    {
      "type": "VEC3",
      "componentType": 5126,
      "count": 801,
      "bufferView": 6,
      "byteOffset": 128160
    },
    {
      "type": "SCALAR",
      "componentType": 5126,
      "count": 801,
      "max": [
        26.66666603088379
      ],
      "min": [
        0
      ],
      "bufferView": 6,
      "byteOffset": 137772
    },
    {
      "type": "VEC4",
      "componentType": 5126,
      "count": 801,
      "bufferView": 6,
      "byteOffset": 140976
    },
    {
      "type": "SCALAR",
      "componentType": 5126,
      "count": 801,
      "max": [
        26.66666603088379
      ],
      "min": [
        0
      ],
      "bufferView": 6,
      "byteOffset": 153792
    },
    {
      "type": "VEC3",
      "componentType": 5126,
      "count": 801,
      "bufferView": 6,
      "byteOffset": 156996
    }
  ],
  "bufferViews": [
    {
      "buffer": 0,
      "byteOffset": 0,
      "byteLength": 78336,
      "byteStride": 24,
      "target": 34962
    },
    {
      "buffer": 0,
      "byteOffset": 78336,
      "byteLength": 52560,
      "target": 34963
    },
    {
      "buffer": 0,
      "byteOffset": 130896,
      "byteLength": 78336,
      "byteStride": 24,
      "target": 34962
    },
    {
      "buffer": 0,
      "byteOffset": 209232,
      "byteLength": 78336,
      "byteStride": 24,
      "target": 34962
    },
    {
      "buffer": 0,
      "byteOffset": 287568,
      "byteLength": 78336,
      "byteStride": 24,
      "target": 34962
    },
    {
      "buffer": 0,
      "byteOffset": 365904,
      "byteLength": 2688,
      "byteStride": 32,
      "target": 34962
    },
    {
      "buffer": 0,
      "byteOffset": 368592,
      "byteLength": 166608
    }
  ],
  "buffers": [
    {
      "uri": "buffer.bin",
      "byteLength": 535200
    }
  ],
  "materials": [
    {
      "name": "Material #9",
      "pbrMetallicRoughness": {
        "baseColorFactor": [
          0.9950101375579834,
          0.06190749257802963,
          0.06190749257802963,
          1
        ],
        "roughnessFactor": 0,
        "metallicFactor": 0
      }
    },
    {
      "name": "Material #7",
      "pbrMetallicRoughness": {
        "baseColorFactor": [
          0.15728074312210083,
          0.11392093449831009,
          0.08241420984268188,
          1
        ],
        "roughnessFactor": 0,
        "metallicFactor": 0
      }
    },
    {
      "name": "Material #8",
      "pbrMetallicRoughness": {
        "baseColorFactor": [
          0.06190747767686844,
          0.06772459298372269,
          0.694080650806427,
          1
        ],
        "roughnessFactor": 0,
        "metallicFactor": 0
      }
    },
    {
      "name": "Material #10",
      "pbrMetallicRoughness": {
        "baseColorFactor": [
          0.01891298219561577,
          0.28881600499153137,
          0.0477757565677166,
          1
        ],
        "roughnessFactor": 0,
        "metallicFactor": 0
      }
    },
    {
      "name": "Material #11",
      "pbrMetallicRoughness": {
        "baseColorFactor": [
          0.005028203129768372,
          0.005028203129768372,
          0.005028203129768372,
          1
        ],
        "roughnessFactor": 0,
        "metallicFactor": 0
      }
    }
  ],
  "meshes": [
    {
      "primitives": [
        {
          "attributes": {
            "POSITION": 0,
            "NORMAL": 1
          },
          "mode": 4,
          "material": 0,
          "indices": 2
        }
      ]
    },
    {
      "primitives": [
        {
          "attributes": {
            "POSITION": 7,
            "NORMAL": 8
          },
          "mode": 4,
          "material": 1,
          "indices": 3
        }
      ]
    },
    {
      "primitives": [
        {
          "attributes": {
            "POSITION": 9,
            "NORMAL": 10
          },
          "mode": 4,
          "material": 2,
          "indices": 4
        }
      ]
    },
    {
      "primitives": [
        {
          "attributes": {
            "POSITION": 11,
            "NORMAL": 12
          },
          "mode": 4,
          "material": 3,
          "indices": 5
        }
      ]
    },
    {
      "primitives": [
        {
          "attributes": {
            "POSITION": 13,
            "NORMAL": 14,
            "TEXCOORD_0": 15
          },
          "mode": 4,
          "material": 4,
          "indices": 6
        }
      ]
    }
  ],
  "nodes": [
    {
      "name": "Shape001",
      "translation": [
        0.029872208833694458,
        0.3009999990463257,
        0.19504670798778534
      ],
      "rotation": [
        -0.7071067690849304,
        0,
        0,
        0.7071067690849304
      ],
      "mesh": 0
    },
    {
      "name": "Object001",
      "translation": [
        0.26988038420677185,
        0.3000500202178955,
        -0.04459500312805176
      ],
      "rotation": [
        -0.7071067690849304,
        0,
        0,
        0.7071067690849304
      ],
      "mesh": 1
    },
    {
      "name": "Object002",
      "translation": [
        0.029872208833694458,
        0.3000500202178955,
        -0.2845950126647949
      ],
      "rotation": [
        -0.7071067690849304,
        0,
        0,
        0.7071067690849304
      ],
      "mesh": 2
    },
    {
      "name": "Object003",
      "translation": [
        -0.20962543785572052,
        0.3009999990463257,
        -0.04459500312805176
      ],
      "rotation": [
        -0.7071067690849304,
        0,
        0,
        0.7071067690849304
      ],
      "mesh": 3
    },
    {
      "name": "Box002",
      "translation": [
        0.029872208833694458,
        0,
        -0.04459500312805176
      ],
      "rotation": [
        -0.7071067690849304,
        0,
        0,
        0.7071067690849304
      ],
      "mesh": 4
    },
    {
      "name": "FBX_Root",
      "children": [
        0,
        1,
        2,
        3,
        4
      ]
    }
  ],
  "animations": [
    {
      "name": "Take 001",
      "samplers": [
        {
          "input": 16,
          "output": 17,
          "interpolation": "LINEAR"
        },
        {
          "input": 18,
          "output": 19,
          "interpolation": "LINEAR"
        },
        {
          "input": 20,
          "output": 21,
          "interpolation": "LINEAR"
        },
        {
          "input": 22,
          "output": 23,
          "interpolation": "LINEAR"
        },
        {
          "input": 24,
          "output": 25,
          "interpolation": "LINEAR"
        },
        {
          "input": 26,
          "output": 27,
          "interpolation": "LINEAR"
        },
        {
          "input": 28,
          "output": 29,
          "interpolation": "LINEAR"
        },
        {
          "input": 30,
          "output": 31,
          "interpolation": "LINEAR"
        },
        {
          "input": 32,
          "output": 33,
          "interpolation": "LINEAR"
        },
        {
          "input": 34,
          "output": 35,
          "interpolation": "LINEAR"
        },
        {
          "input": 36,
          "output": 37,
          "interpolation": "LINEAR"
        },
        {
          "input": 38,
          "output": 39,
          "interpolation": "LINEAR"
        }
      ],
      "channels": [
        {
          "sampler": 0,
          "target": {
            "node": 0,
            "path": "translation"
          }
        },
        {
          "sampler": 1,
          "target": {
            "node": 0,
            "path": "rotation"
          }
        },
        {
          "sampler": 2,
          "target": {
            "node": 0,
            "path": "scale"
          }
        },
        {
          "sampler": 3,
          "target": {
            "node": 1,
            "path": "translation"
          }
        },
        {
          "sampler": 4,
          "target": {
            "node": 1,
            "path": "rotation"
          }
        },
        {
          "sampler": 5,
          "target": {
            "node": 1,
            "path": "scale"
          }
        },
        {
          "sampler": 6,
          "target": {
            "node": 2,
            "path": "translation"
          }
        },
        {
          "sampler": 7,
          "target": {
            "node": 2,
            "path": "rotation"
          }
        },
        {
          "sampler": 8,
          "target": {
            "node": 2,
            "path": "scale"
          }
        },
        {
          "sampler": 9,
          "target": {
            "node": 3,
            "path": "translation"
          }
        },
        {
          "sampler": 10,
          "target": {
            "node": 3,
            "path": "rotation"
          }
        },
        {
          "sampler": 11,
          "target": {
            "node": 3,
            "path": "scale"
          }
        }
      ]
    }
  ],
  "scenes": [
    {
      "name": "empty_1",
      "nodes": [
        5
      ]
    }
  ],
  "scene": 0
}